<svg width="32" height="32" viewBox="0 0 32 32" fill="none" xmlns="http://www.w3.org/2000/svg">
  <rect width="32" height="32" rx="6" fill="#3B82F6"/>
  <path d="M8 12.5C8 11.1193 9.11929 10 10.5 10H13.5C14.8807 10 16 11.1193 16 12.5C16 13.8807 14.8807 15 13.5 15H11V17H13.5C14.3284 17 15 17.6716 15 18.5C15 19.3284 14.3284 20 13.5 20H10.5C9.11929 20 8 18.8807 8 17.5V12.5Z" fill="white"/>
  <path d="M18 12.5C18 11.1193 19.1193 10 20.5 10H23.5C24.8807 10 26 11.1193 26 12.5V17.5C26 18.8807 24.8807 20 23.5 20H20.5C19.1193 20 18 18.8807 18 17.5V12.5Z" fill="white"/>
  <path d="M20 12V18H24V12H20Z" fill="#3B82F6"/>
</svg>