<svg width="1200" height="630" viewBox="0 0 1200 630" fill="none" xmlns="http://www.w3.org/2000/svg">
  <rect width="1200" height="630" fill="#0F172A"/>
  <rect x="50" y="50" width="1100" height="530" rx="20" fill="#1E293B"/>
  
  <!-- Gradient overlay -->
  <defs>
    <linearGradient id="gradient" x1="0%" y1="0%" x2="100%" y2="100%">
      <stop offset="0%" style="stop-color:#3B82F6;stop-opacity:0.1" />
      <stop offset="100%" style="stop-color:#8B5CF6;stop-opacity:0.1" />
    </linearGradient>
  </defs>
  <rect x="50" y="50" width="1100" height="530" rx="20" fill="url(#gradient)"/>
  
  <!-- Profile placeholder -->
  <circle cx="300" cy="315" r="80" fill="#3B82F6"/>
  <circle cx="300" cy="295" r="25" fill="white"/>
  <path d="M260 340 Q300 320 340 340 Q340 360 300 380 Q260 360 260 340 Z" fill="white"/>
  
  <!-- Main text -->
  <text x="450" y="280" font-family="Inter, sans-serif" font-size="48" font-weight="700" fill="white">
    Siddhant Wadhwani
  </text>
  <text x="450" y="320" font-family="Inter, sans-serif" font-size="24" font-weight="400" fill="#94A3B8">
    Engineering Manager - SDET
  </text>
  <text x="450" y="360" font-family="Inter, sans-serif" font-size="20" font-weight="400" fill="#64748B">
    Global Tech Speaker • BrowserStack Champion • LinkedIn Top Voice
  </text>
  
  <!-- Decorative elements -->
  <rect x="450" y="380" width="60" height="3" rx="1.5" fill="#3B82F6"/>
  <rect x="520" y="380" width="40" height="3" rx="1.5" fill="#8B5CF6"/>
  <rect x="570" y="380" width="30" height="3" rx="1.5" fill="#06B6D4"/>
  
  <!-- Bottom text -->
  <text x="600" y="540" font-family="Inter, sans-serif" font-size="16" font-weight="400" fill="#64748B" text-anchor="end">
    siddhantwadhwani.com
  </text>
</svg>